<mxfile host="localhost" modified="2020-05-15T05:23:28.912Z" agent="5.0 (Macintosh; Intel Mac OS X 10_14_6) AppleWebKit/537.36 (KHTML, like Gecko) Code/1.45.0 Chrome/78.0.3904.130 Electron/7.2.4 Safari/537.36" etag="4Ki855JVGyhqi7inRG4k" version="13.0.9">
    <diagram id="-yHrvas9mXF-HfNTyfos" name="Page-1">
        <mxGraphModel dx="1066" dy="860" grid="1" gridSize="10" guides="1" tooltips="1" connect="1" arrows="1" fold="1" page="1" pageScale="1" pageWidth="827" pageHeight="1169" math="0" shadow="0">
            <root>
                <mxCell id="0"/>
                <mxCell id="1" parent="0"/>
                <mxCell id="37" value="" style="whiteSpace=wrap;html=1;" parent="1" vertex="1">
                    <mxGeometry width="820" height="720" as="geometry"/>
                </mxCell>
                <mxCell id="15" value="" style="whiteSpace=wrap;html=1;rounded=0;glass=0;fontSize=18;align=center;" parent="1" vertex="1">
                    <mxGeometry x="30" y="20" width="760" height="510" as="geometry"/>
                </mxCell>
                <mxCell id="5" value="" style="whiteSpace=wrap;html=1;rounded=0;glass=0;" parent="1" vertex="1">
                    <mxGeometry x="80" y="80" width="180" height="290" as="geometry"/>
                </mxCell>
                <mxCell id="7" value="Ansible Container" style="text;html=1;strokeColor=none;fillColor=none;align=left;verticalAlign=middle;whiteSpace=wrap;rounded=0;fontSize=18;" parent="1" vertex="1">
                    <mxGeometry x="90" y="85" width="160" height="30" as="geometry"/>
                </mxCell>
                <mxCell id="9" value="Nginx" style="rounded=0;whiteSpace=wrap;html=1;fontSize=18;align=center;" parent="1" vertex="1">
                    <mxGeometry x="110" y="120" width="120" height="60" as="geometry"/>
                </mxCell>
                <mxCell id="10" value="PostgreSQL" style="rounded=0;whiteSpace=wrap;html=1;fontSize=18;align=center;" parent="1" vertex="1">
                    <mxGeometry x="110" y="200" width="120" height="60" as="geometry"/>
                </mxCell>
                <mxCell id="11" value="Python3" style="rounded=0;whiteSpace=wrap;html=1;glass=0;fontSize=18;align=center;" parent="1" vertex="1">
                    <mxGeometry x="110" y="280" width="120" height="60" as="geometry"/>
                </mxCell>
                <mxCell id="12" value="" style="whiteSpace=wrap;html=1;rounded=0;glass=0;fontSize=18;align=center;" parent="1" vertex="1">
                    <mxGeometry x="470" y="80" width="290" height="410" as="geometry"/>
                </mxCell>
                <mxCell id="13" value="Target Container" style="text;html=1;strokeColor=none;fillColor=none;align=center;verticalAlign=middle;whiteSpace=wrap;rounded=0;glass=0;fontSize=18;" parent="1" vertex="1">
                    <mxGeometry x="480" y="90" width="140" height="20" as="geometry"/>
                </mxCell>
                <mxCell id="14" value="" style="endArrow=classic;html=1;fontSize=18;exitX=1;exitY=0.5;exitDx=0;exitDy=0;entryX=-0.003;entryY=0.354;entryDx=0;entryDy=0;entryPerimeter=0;" parent="1" source="5" target="12" edge="1">
                    <mxGeometry width="50" height="50" relative="1" as="geometry">
                        <mxPoint x="300" y="230" as="sourcePoint"/>
                        <mxPoint x="460" y="230" as="targetPoint"/>
                    </mxGeometry>
                </mxCell>
                <mxCell id="16" value="Docker" style="text;strokeColor=none;fillColor=none;html=1;fontSize=24;fontStyle=1;verticalAlign=middle;align=center;rounded=0;glass=0;" parent="1" vertex="1">
                    <mxGeometry x="40" y="30" width="100" height="40" as="geometry"/>
                </mxCell>
                <mxCell id="18" value="django" style="shape=cylinder;whiteSpace=wrap;html=1;boundedLbl=1;backgroundOutline=1;rounded=0;glass=0;fontSize=18;align=center;" parent="1" vertex="1">
                    <mxGeometry x="670" y="235" width="70" height="80" as="geometry"/>
                </mxCell>
                <mxCell id="19" value="ansible-playbook" style="text;html=1;strokeColor=none;fillColor=none;align=center;verticalAlign=middle;whiteSpace=wrap;rounded=0;glass=0;fontSize=18;" parent="1" vertex="1">
                    <mxGeometry x="290" y="200" width="150" height="20" as="geometry"/>
                </mxCell>
                <mxCell id="24" value="Nginx" style="ellipse;shape=cloud;whiteSpace=wrap;html=1;rounded=0;glass=0;fontSize=18;align=center;" parent="1" vertex="1">
                    <mxGeometry x="500" y="360" width="120" height="80" as="geometry"/>
                </mxCell>
                <mxCell id="25" value="Gunicorn" style="shape=process;whiteSpace=wrap;html=1;backgroundOutline=1;rounded=0;glass=0;fontSize=18;align=center;" parent="1" vertex="1">
                    <mxGeometry x="500" y="255" width="120" height="60" as="geometry"/>
                </mxCell>
                <mxCell id="27" value="HostPC" style="whiteSpace=wrap;html=1;rounded=0;glass=0;fontSize=18;align=center;" parent="1" vertex="1">
                    <mxGeometry x="470" y="610" width="290" height="90" as="geometry"/>
                </mxCell>
                <mxCell id="28" value="" style="endArrow=classic;html=1;fontSize=18;exitX=0.55;exitY=0.95;exitDx=0;exitDy=0;exitPerimeter=0;entryX=0.25;entryY=0;entryDx=0;entryDy=0;" parent="1" source="24" target="27" edge="1">
                    <mxGeometry width="50" height="50" relative="1" as="geometry">
                        <mxPoint x="460" y="440" as="sourcePoint"/>
                        <mxPoint x="510" y="390" as="targetPoint"/>
                    </mxGeometry>
                </mxCell>
                <mxCell id="29" value="" style="endArrow=classic;html=1;fontSize=18;exitX=0.5;exitY=1;exitDx=0;exitDy=0;entryX=0.75;entryY=0;entryDx=0;entryDy=0;" parent="1" source="18" target="27" edge="1">
                    <mxGeometry width="50" height="50" relative="1" as="geometry">
                        <mxPoint x="460" y="440" as="sourcePoint"/>
                        <mxPoint x="510" y="390" as="targetPoint"/>
                    </mxGeometry>
                </mxCell>
                <mxCell id="30" value="8999:80" style="text;html=1;strokeColor=none;fillColor=none;align=center;verticalAlign=middle;whiteSpace=wrap;rounded=0;glass=0;fontSize=18;" parent="1" vertex="1">
                    <mxGeometry x="550" y="565" width="80" height="20" as="geometry"/>
                </mxCell>
                <mxCell id="31" value="15432:5432" style="text;html=1;strokeColor=none;fillColor=none;align=center;verticalAlign=middle;whiteSpace=wrap;rounded=0;glass=0;fontSize=18;" parent="1" vertex="1">
                    <mxGeometry x="690" y="565" width="100" height="20" as="geometry"/>
                </mxCell>
                <mxCell id="33" value="&lt;font style=&quot;font-size: 18px&quot;&gt;Django&lt;/font&gt;" style="rounded=0;whiteSpace=wrap;html=1;" parent="1" vertex="1">
                    <mxGeometry x="500" y="140" width="120" height="60" as="geometry"/>
                </mxCell>
                <mxCell id="34" value="" style="endArrow=classic;startArrow=classic;html=1;exitX=0.5;exitY=0;exitDx=0;exitDy=0;entryX=0.5;entryY=1;entryDx=0;entryDy=0;" parent="1" source="25" target="33" edge="1">
                    <mxGeometry width="50" height="50" relative="1" as="geometry">
                        <mxPoint x="510" y="250" as="sourcePoint"/>
                        <mxPoint x="560" y="200" as="targetPoint"/>
                    </mxGeometry>
                </mxCell>
                <mxCell id="35" value="" style="endArrow=classic;startArrow=classic;html=1;entryX=0.5;entryY=1;entryDx=0;entryDy=0;" parent="1" source="24" target="25" edge="1">
                    <mxGeometry width="50" height="50" relative="1" as="geometry">
                        <mxPoint x="390" y="460" as="sourcePoint"/>
                        <mxPoint x="440" y="410" as="targetPoint"/>
                    </mxGeometry>
                </mxCell>
                <mxCell id="36" value="" style="endArrow=classic;startArrow=classic;html=1;entryX=0.5;entryY=0;entryDx=0;entryDy=0;exitX=1;exitY=0.5;exitDx=0;exitDy=0;" parent="1" source="33" target="18" edge="1">
                    <mxGeometry width="50" height="50" relative="1" as="geometry">
                        <mxPoint x="390" y="540" as="sourcePoint"/>
                        <mxPoint x="440" y="490" as="targetPoint"/>
                    </mxGeometry>
                </mxCell>
            </root>
        </mxGraphModel>
    </diagram>
</mxfile>
